<?xml version="1.0" standalone="no"?>
<!DOCTYPE svg PUBLIC "-//W3C//DTD SVG 20010904//EN"
 "http://www.w3.org/TR/2001/REC-SVG-20010904/DTD/svg10.dtd">
<svg version="1.0" xmlns="http://www.w3.org/2000/svg"
 width="472.000000pt" height="472.000000pt" viewBox="0 0 472.000000 472.000000"
 preserveAspectRatio="xMidYMid meet">
<metadata>
Created by potrace 1.14, written by Peter Selinger 2001-2017
</metadata>
<g transform="translate(0.000000,472.000000) scale(0.100000,-0.100000)"
fill="#000000" stroke="none">
<path d="M1318 3900 c-26 -5 -69 -15 -95 -24 -93 -29 -219 -54 -313 -61 -137
-9 -187 -26 -236 -77 -86 -89 -102 -154 -109 -463 -6 -257 -14 -322 -44 -346
-12 -10 -58 -30 -104 -45 -115 -38 -152 -58 -229 -126 -88 -78 -122 -144 -124
-244 -2 -82 11 -110 95 -197 59 -62 130 -101 255 -142 55 -18 104 -39 107 -46
4 -8 27 -54 51 -104 56 -116 110 -175 161 -175 31 0 41 -5 57 -32 28 -46 26
-57 -25 -113 -24 -28 -48 -59 -54 -70 -5 -11 -25 -54 -44 -95 -42 -89 -129
-183 -197 -212 -98 -43 -236 -100 -261 -108 -14 -4 -67 -27 -117 -50 l-92 -43
0 -563 0 -564 2360 0 2360 0 0 115 c0 112 -1 117 -41 207 -22 51 -58 140 -81
198 -72 190 -110 255 -193 337 -53 52 -87 73 -222 137 -87 42 -166 81 -175 86
-10 6 -26 10 -36 10 -10 0 -23 5 -28 10 -22 22 -300 119 -434 151 -30 7 -64
19 -75 26 -25 17 -72 17 -78 1 -3 -8 -6 -5 -6 5 -1 11 -15 24 -36 33 -19 8
-35 21 -35 29 0 18 -17 20 -23 3 -3 -10 -10 -10 -31 2 -23 12 -27 19 -23 45 2
16 -4 55 -14 85 -11 30 -26 81 -35 113 -16 58 -29 71 -41 40 -4 -10 -9 -20
-13 -23 -22 -18 -60 -108 -60 -143 0 -22 -22 -106 -49 -186 -57 -168 -95 -293
-112 -371 -14 -62 -30 -80 -71 -80 -36 0 -38 -31 -4 -54 28 -18 34 0 -54 -176
-54 -110 -76 -124 -107 -68 l-18 33 -3 -32 c-4 -41 -22 -44 -22 -4 0 17 -5 33
-12 37 -8 5 -9 -2 -5 -26 4 -19 2 -38 -4 -46 -6 -8 -9 -21 -5 -29 3 -10 -1
-15 -12 -15 -10 0 -23 -5 -29 -11 -16 -16 -32 -3 -26 21 5 17 0 20 -31 20 -20
0 -36 -3 -36 -7 0 -5 -14 -24 -29 -43 l-29 -35 -22 20 c-39 35 -62 103 -65
190 -2 56 -9 94 -24 125 -11 25 -21 51 -21 59 -1 56 -92 366 -134 456 -51 107
-78 235 -58 270 9 16 11 16 23 -7 57 -104 72 -128 106 -163 83 -88 322 -215
404 -215 67 0 159 73 159 126 0 27 -6 35 -32 49 -30 15 -34 15 -45 -1 -11 -16
-16 -15 -53 11 -40 28 -42 28 -69 12 -27 -16 -28 -16 -39 8 -8 17 -20 25 -36
25 -13 0 -26 4 -28 10 -1 5 -14 11 -28 13 -18 3 -25 10 -25 26 0 13 -8 27 -18
32 -9 6 -17 21 -17 34 0 14 -4 25 -10 25 -5 0 -10 7 -10 15 0 17 12 19 26 5 7
-7 23 3 48 30 l38 41 -23 45 c-25 46 -41 53 -74 31 -11 -8 -31 -17 -45 -20
-31 -8 -112 23 -105 41 2 6 1 12 -3 12 -4 0 -14 5 -22 10 -13 8 -12 11 5 24
19 15 19 16 -25 56 -25 22 -54 40 -65 40 -26 0 -45 18 -45 42 0 22 -7 23 -26
4 -10 -11 -12 -28 -8 -63 7 -52 26 -80 62 -94 30 -12 28 -29 -4 -29 -36 0 -29
-34 9 -38 15 -2 27 -8 27 -13 0 -6 14 -7 35 -3 19 3 43 3 52 -1 15 -7 12 -9
-12 -14 -25 -5 -29 -11 -27 -30 3 -19 0 -22 -13 -17 -9 3 -40 6 -68 6 -49 1
-51 1 -32 16 15 12 17 18 6 21 -7 3 -23 17 -35 31 -11 14 -31 35 -42 46 -20
19 -21 26 -11 78 12 67 6 79 -52 97 -43 12 -97 69 -108 111 -3 14 -12 34 -19
45 -8 11 -14 28 -14 38 0 10 -9 30 -20 44 -25 32 -16 48 15 27 19 -12 23 -22
19 -39 -3 -14 0 -26 8 -32 7 -4 26 -27 41 -50 46 -67 98 -63 63 6 -9 16 -16
41 -16 55 0 13 -6 26 -12 29 -10 4 -10 7 0 18 6 7 12 24 12 38 0 13 7 33 16
43 13 14 14 21 5 32 -15 17 -7 36 15 36 8 0 14 9 14 20 0 24 -9 26 -25 3 -7
-9 -17 -13 -23 -9 -20 12 -14 21 23 32 33 10 35 10 35 -12 0 -30 14 -38 41
-24 15 9 20 19 16 36 -5 26 18 58 34 49 5 -4 9 -15 9 -26 0 -10 4 -19 10 -19
5 0 7 -7 4 -15 -4 -8 -15 -15 -25 -15 -12 0 -19 -7 -19 -19 0 -14 -5 -18 -18
-14 -28 7 -45 -19 -28 -43 14 -18 16 -17 50 20 35 37 37 37 61 22 28 -18 52
-12 78 21 11 14 29 23 46 23 14 0 34 9 44 20 19 23 47 26 65 8 7 -7 33 -13 60
-15 26 -2 62 -5 80 -6 28 -3 35 0 43 19 4 13 6 31 3 39 -4 8 -1 15 5 15 6 0
11 5 11 10 0 6 -9 10 -19 10 -11 0 -22 4 -25 9 -3 5 -15 7 -26 4 -10 -3 -26 2
-35 11 -19 18 -31 20 -40 6 -7 -12 -55 17 -55 34 0 14 44 56 59 56 6 0 11 10
11 23 0 40 14 51 49 39 17 -6 31 -10 32 -9 0 1 2 10 4 20 5 29 15 34 26 14 7
-12 17 -16 30 -12 11 4 34 1 51 -6 30 -12 33 -11 59 20 15 18 32 30 38 27 19
-12 51 13 48 37 -1 16 4 23 19 25 13 2 24 13 28 25 4 18 8 19 18 9 10 -10 10
-15 -2 -23 -12 -8 -10 -9 8 -4 15 4 24 2 28 -9 7 -18 71 -20 92 -3 10 8 16 7
22 -3 6 -11 15 -9 43 8 29 17 38 18 46 8 13 -15 90 -18 107 -5 7 6 16 4 24 -6
7 -8 18 -15 24 -15 6 0 22 -9 36 -20 22 -17 23 -22 13 -39 -7 -12 -13 -23 -13
-26 0 -10 19 -5 32 9 8 7 24 16 35 20 20 6 22 3 29 -52 l6 -60 57 25 c117 51
198 93 211 108 7 8 18 15 24 15 6 0 36 25 65 54 50 50 54 59 55 103 1 26 5 53
9 60 10 16 -25 51 -60 59 -15 4 -34 13 -41 20 -28 28 -107 40 -313 48 -53 2
-104 8 -113 13 -8 5 -46 5 -83 1 -38 -4 -102 -10 -143 -13 -41 -3 -97 -14
-123 -23 -38 -13 -53 -14 -78 -5 -24 9 -35 9 -50 0 -15 -9 -21 -9 -27 0 -5 7
-23 14 -42 16 -43 5 -55 23 -40 62 12 30 12 30 21 7 10 -26 29 -21 29 9 0 24
-40 26 -75 3 -29 -19 -32 -40 -8 -66 14 -16 15 -18 0 -18 -25 0 -48 39 -36 62
9 16 7 20 -10 25 -12 3 -21 10 -21 15 0 5 9 6 20 3 26 -8 28 23 3 32 -31 11
-44 43 -19 43 8 0 24 -13 36 -30 27 -38 50 -38 72 0 16 28 16 30 0 30 -10 0
-23 -5 -30 -12 -9 -9 -16 -8 -30 5 -10 9 -24 17 -30 17 -6 0 -15 8 -21 18 -8
14 -13 15 -28 4 -10 -7 -26 -15 -36 -19 -17 -5 -16 -8 6 -32 19 -21 23 -34 20
-63 -3 -21 -10 -38 -15 -38 -7 0 -9 16 -5 39 3 22 0 44 -6 50 -18 18 -28 13
-22 -12 4 -16 0 -29 -14 -41 -21 -19 -21 -19 -21 23 0 23 -7 55 -15 71 -13 25
-13 29 1 34 9 3 25 6 36 6 17 0 18 -2 8 -15 -17 -21 -6 -29 20 -15 16 8 19 15
11 24 -6 7 -7 16 -3 20 4 4 7 18 7 29 0 13 6 22 15 22 10 0 14 -8 12 -22 -3
-25 4 -28 27 -14 13 8 13 12 1 26 -12 14 -12 18 1 25 11 7 11 12 1 22 -9 9
-12 9 -12 -5 0 -21 -19 -22 -27 -2 -3 9 -15 15 -26 13 -13 -2 -23 3 -25 12 -2
12 6 16 35 16 38 0 73 6 104 19 9 3 21 -1 29 -10 7 -8 20 -15 29 -15 9 0 22
-5 28 -11 8 -8 17 -8 31 0 11 6 29 11 39 11 11 0 27 6 36 13 26 18 9 97 -28
131 -15 14 -33 26 -38 26 -23 0 5 14 40 19 l38 7 -3 47 c-2 32 1 47 9 47 9 0
10 24 6 93 -8 111 -23 131 -90 120 -28 -4 -38 -3 -33 5 10 17 -73 25 -178 17
-74 -5 -98 -11 -112 -26 -12 -13 -21 -16 -29 -9 -13 11 -31 8 -166 -26 -30 -8
-84 -14 -118 -14 -98 0 -138 -16 -202 -82 l-56 -57 -26 32 c-15 18 -27 37 -27
42 0 22 -75 86 -134 115 -37 18 -91 35 -132 41 -38 5 -80 11 -94 13 -14 2 -46
0 -72 -4z m1226 -211 c-3 -5 -10 -7 -15 -3 -5 3 -7 10 -3 15 3 5 10 7 15 3 5
-3 7 -10 3 -15z m86 -31 c0 -7 3 -30 6 -50 5 -25 3 -38 -5 -38 -6 0 -11 13
-11 29 0 16 -7 34 -15 41 -8 7 -12 16 -9 21 8 14 34 11 34 -3z m71 -38 c22 0
33 -16 18 -25 -20 -13 -59 16 -58 44 0 26 0 26 11 4 6 -13 19 -23 29 -23z m9
-50 c0 -5 -5 -10 -11 -10 -5 0 -7 5 -4 10 3 6 8 10 11 10 2 0 4 -4 4 -10z
m-330 -70 c0 -5 -5 -10 -11 -10 -5 0 -7 5 -4 10 3 6 8 10 11 10 2 0 4 -4 4
-10z m113 -7 c-7 -2 -19 -2 -25 0 -7 3 -2 5 12 5 14 0 19 -2 13 -5z m64 -30
c-9 -9 -20 -13 -24 -9 -4 4 -1 11 7 16 25 16 35 11 17 -7z m-167 -97 c0 -3 -4
-8 -10 -11 -5 -3 -10 -1 -10 4 0 6 5 11 10 11 6 0 10 -2 10 -4z m-3 -332 c-3
-3 -12 -4 -19 -1 -8 3 -5 6 6 6 11 1 17 -2 13 -5z m153 -402 c0 -14 -11 -21
-26 -15 -8 3 -11 9 -8 14 7 11 34 12 34 1z m-300 -118 c0 -13 -4 -24 -9 -24
-15 0 -33 29 -27 45 8 22 36 6 36 -21z m106 27 c-3 -4 -19 -14 -36 -21 -24
-10 -34 -10 -43 -1 -9 9 -8 14 3 21 19 12 83 13 76 1z m-192 -100 c8 -12 -20
-22 -39 -15 -19 8 -9 24 15 24 10 0 21 -4 24 -9z m-99 -21 c-3 -5 -13 -10 -21
-10 -8 0 -12 5 -9 10 3 6 13 10 21 10 8 0 12 -4 9 -10z m155 -14 c0 -8 -14
-19 -31 -25 -38 -13 -129 -15 -129 -2 0 9 57 21 103 21 15 0 27 5 27 10 0 6 7
10 15 10 8 0 15 -6 15 -14z m130 -816 c0 -5 -5 -10 -11 -10 -5 0 -7 5 -4 10 3
6 8 10 11 10 2 0 4 -4 4 -10z m-55 -40 c-11 -5 -27 -9 -35 -9 -9 0 -8 4 5 9
11 5 27 9 35 9 9 0 8 -4 -5 -9z m29 -62 c13 -22 3 -32 -23 -23 -25 8 -29 48
-5 43 9 -2 22 -11 28 -20z m46 -64 c0 -16 -9 -18 -29 -5 -7 5 -11 14 -7 19 9
15 36 4 36 -14z m1030 -178 c0 -3 -4 -8 -10 -11 -5 -3 -10 -1 -10 4 0 6 5 11
10 11 6 0 10 -2 10 -4z m-190 -36 c0 -11 -40 -50 -52 -50 -10 0 -3 14 21 42
17 20 31 23 31 8z m-190 -470 c0 -5 -4 -10 -10 -10 -5 0 -10 5 -10 10 0 6 5
10 10 10 6 0 10 -4 10 -10z m-410 -349 c14 -27 -12 -51 -56 -51 -35 0 -43 15
-28 54 9 24 71 21 84 -3z m-105 -62 c10 -15 -1 -23 -20 -15 -9 3 -13 10 -10
16 8 13 22 13 30 -1z m33 -68 c4 -23 4 -23 -21 -5 -27 20 -26 37 1 32 10 -2
19 -14 20 -27z m-48 -107 c0 -8 -4 -12 -10 -9 -5 3 -10 10 -10 16 0 5 5 9 10
9 6 0 10 -7 10 -16z"/>
<path d="M2820 3765 c-8 -10 -9 -19 -3 -27 12 -17 9 -81 -4 -85 -7 -3 -7 -18
-1 -46 5 -23 11 -66 13 -96 2 -30 10 -61 18 -69 16 -16 192 -53 213 -45 8 3
11 9 8 14 -3 5 -10 7 -15 4 -5 -4 -9 0 -10 7 -2 34 -11 63 -24 77 -7 9 -14 21
-14 26 0 34 -26 95 -42 100 -11 4 -19 14 -19 24 0 14 -40 79 -67 111 -2 2 -9
-2 -14 -10 -8 -11 -9 -10 -4 8 7 26 -15 31 -35 7z m152 -307 c-9 -9 -12 -4
-11 23 0 32 1 33 11 11 8 -17 8 -26 0 -34z"/>
<path d="M2906 3375 c-11 -8 -18 -17 -15 -19 2 -3 15 4 29 14 14 11 21 20 15
19 -5 0 -19 -6 -29 -14z"/>
<path d="M2830 3370 c0 -5 5 -10 10 -10 6 0 10 5 10 10 0 6 -4 10 -10 10 -5 0
-10 -4 -10 -10z"/>
<path d="M2986 3373 c-11 -11 -6 -23 9 -23 8 0 15 4 15 9 0 13 -16 22 -24 14z"/>
<path d="M2960 3353 c0 -12 5 -25 10 -28 13 -8 13 15 0 35 -8 12 -10 11 -10
-7z"/>
<path d="M3037 3354 c-3 -3 -1 -18 4 -33 6 -14 10 -28 9 -31 -1 -2 3 -6 9 -8
6 -2 11 6 11 17 0 12 6 21 15 21 13 0 14 4 5 20 -10 19 -40 27 -53 14z"/>
<path d="M2570 3290 c0 -5 7 -10 16 -10 8 0 12 5 9 10 -3 6 -10 10 -16 10 -5
0 -9 -4 -9 -10z"/>
<path d="M2610 3240 c0 -5 5 -10 11 -10 5 0 7 5 4 10 -3 6 -8 10 -11 10 -2 0
-4 -4 -4 -10z"/>
<path d="M2767 2476 c-24 -19 -14 -86 13 -86 10 0 23 -7 30 -15 19 -23 40 -18
40 9 0 18 7 25 31 30 35 7 49 1 49 -20 0 -8 16 -22 35 -30 45 -18 45 -18 45
11 0 17 -8 29 -22 36 -37 16 -62 33 -88 57 -28 26 -103 30 -133 8z"/>
<path d="M2672 2428 c-20 -20 -14 -47 13 -54 33 -8 41 0 29 33 -11 31 -25 38
-42 21z"/>
<path d="M3322 2398 c-18 -18 -14 -38 7 -38 27 0 37 19 19 36 -11 11 -16 12
-26 2z"/>
<path d="M2000 2002 c0 -17 49 -54 64 -49 21 8 9 37 -14 37 -11 0 -22 5 -25
10 -7 12 -25 13 -25 2z"/>
<path d="M2132 1988 c-15 -15 -16 -38 -2 -38 12 0 23 25 18 40 -2 7 -7 7 -16
-2z"/>
<path d="M2160 1950 c0 -5 7 -10 15 -10 8 0 15 5 15 10 0 6 -7 10 -15 10 -8 0
-15 -4 -15 -10z"/>
<path d="M2362 1911 c-20 -40 -13 -69 7 -34 10 17 11 16 17 -4 4 -15 14 -23
28 -23 32 0 39 -11 20 -31 -15 -17 -15 -19 11 -31 20 -9 31 -9 45 0 13 8 27 9
44 2 18 -6 28 -5 36 6 7 7 18 14 26 14 16 0 37 37 31 54 -3 7 -24 18 -48 26
-24 8 -55 22 -69 32 -14 10 -49 21 -77 24 l-51 7 -20 -42z m58 9 c0 -5 -4 -10
-10 -10 -5 0 -10 5 -10 10 0 6 5 10 10 10 6 0 10 -4 10 -10z"/>
<path d="M2390 1810 c0 -5 5 -10 11 -10 5 0 7 5 4 10 -3 6 -8 10 -11 10 -2 0
-4 -4 -4 -10z"/>
<path d="M2552 1669 c2 -6 7 -10 11 -10 4 1 14 1 22 1 8 0 15 5 15 10 0 6 -12
10 -26 10 -14 0 -24 -5 -22 -11z"/>
<path d="M2465 1640 c-17 -19 -17 -22 -2 -37 15 -15 17 -14 28 11 17 36 -1 54
-26 26z"/>
<path d="M2080 1610 c0 -5 6 -10 14 -10 8 0 18 5 21 10 3 6 -3 10 -14 10 -12
0 -21 -4 -21 -10z"/>
<path d="M2430 1536 c0 -8 5 -18 10 -21 6 -3 10 3 10 14 0 12 -4 21 -10 21 -5
0 -10 -6 -10 -14z"/>
<path d="M2515 1542 c-23 -8 -65 -43 -65 -54 0 -14 38 -8 55 8 9 9 24 14 36
11 28 -7 49 2 49 20 0 9 -6 13 -15 9 -8 -3 -15 -1 -15 4 0 11 -15 11 -45 2z"/>
<path d="M2762 1318 c7 -19 38 -22 38 -4 0 10 -9 16 -21 16 -12 0 -19 -5 -17
-12z"/>
<path d="M2704 911 c9 -13 -31 -44 -49 -38 -17 7 -22 -18 -5 -28 11 -7 -7 -45
-27 -58 -14 -8 -18 -49 -7 -60 4 -4 21 13 39 36 18 23 51 51 74 62 22 11 41
25 41 31 0 11 -52 64 -64 64 -4 0 -5 -4 -2 -9z"/>
<path d="M2481 795 c-28 -31 -51 -59 -51 -64 0 -5 9 -11 20 -14 11 -3 20 -12
20 -21 0 -8 10 -34 21 -56 20 -38 23 -40 39 -25 18 16 34 79 18 69 -9 -6 -11
6 -9 51 1 17 2 39 2 50 -1 11 -1 30 -1 43 0 12 -2 22 -4 22 -2 0 -26 -25 -55
-55z"/>
<path d="M2587 694 c-8 -8 1 -24 14 -24 5 0 9 7 9 15 0 15 -12 20 -23 9z"/>
<path d="M2520 570 c0 -19 3 -21 12 -12 9 9 9 15 0 24 -9 9 -12 7 -12 -12z"/>
</g>
</svg>
